  0
SECTION
  2
HEADER
  9
$ACADVER
  1
AC1014
  9
$HANDSEED
  5
FFFF
  9
$MEASUREMENT
 70
     1
  0
ENDSEC
  0
SECTION
  2
TABLES
  0
TABLE
  2
VPORT
  5
8
330
0
100
AcDbSymbolTable
 70
     4
  0
VPORT
  5
2E
330
8
100
AcDbSymbolTableRecord
100
AcDbViewportTableRecord
  2
*ACTIVE
 70
     0
 10
0.0
 20
0.0
 11
1.0
 21
1.0
 12
210.0
 22
148.5
 13
0.0
 23
0.0
 14
10.0
 24
10.0
 15
10.0
 25
10.0
 16
0.0
 26
0.0
 36
1.0
 17
0.0
 27
0.0
 37
0.0
 40
341.0
 41
1.24
 42
50.0
 43
0.0
 44
0.0
 50
0.0
 51
0.0
 71
     0
 72
   100
 73
     1
 74
     3
 75
     0
 76
     0
 77
     0
 78
     0
  0
ENDTAB
  0
TABLE
  2
LTYPE
  5
5
330
0
100
AcDbSymbolTable
 70
     1
  0
LTYPE
  5
14
330
5
100
AcDbSymbolTableRecord
100
AcDbLinetypeTableRecord
  2
BYBLOCK
 70
     0
  3

 72
    65
 73
     0
 40
0.0
  0
LTYPE
  5
15
330
5
100
AcDbSymbolTableRecord
100
AcDbLinetypeTableRecord
  2
BYLAYER
 70
     0
  3

 72
    65
 73
     0
 40
0.0
  0
LTYPE
  5
16
330
5
100
AcDbSymbolTableRecord
100
AcDbLinetypeTableRecord
  2
CONTINUOUS
 70
     0
  3
Solid line
 72
    65
 73
     0
 40
0.0
  0
ENDTAB
  0
TABLE
  2
LAYER
  5
2
100
AcDbSymbolTable
 70
5
  0
LAYER
  5
50
100
AcDbSymbolTableRecord
100
AcDbLayerTableRecord
  2
0
 70
0
  6
CONTINUOUS
  0
LAYER
  5
51
100
AcDbSymbolTableRecord
100
AcDbLayerTableRecord
  2
mfos_vco_VI_panel_2
 70
0
  6
CONTINUOUS
  0
LAYER
  5
52
100
AcDbSymbolTableRecord
100
AcDbLayerTableRecord
  2
holes
 70
0
  6
CONTINUOUS
  0
LAYER
  5
53
100
AcDbSymbolTableRecord
100
AcDbLayerTableRecord
  2
text
 70
0
  6
CONTINUOUS
  0
LAYER
  5
54
100
AcDbSymbolTableRecord
100
AcDbLayerTableRecord
  2
overlay#1
 70
0
  6
CONTINUOUS
  0
ENDTAB
  0
TABLE
  2
STYLE
  5
3
330
0
100
AcDbSymbolTable
 70
     1
  0
STYLE
  5
11
330
3
100
AcDbSymbolTableRecord
100
AcDbTextStyleTableRecord
  2
STANDARD
 70
     0
 40
0.0
 41
1.0
 50
0.0
 71
     0
 42
2.5
  3
txt
  4

  0
ENDTAB
  0
TABLE
  2
VIEW
  5
6
330
0
100
AcDbSymbolTable
 70
     0
  0
ENDTAB
  0
TABLE
  2
UCS
  5
7
330
0
100
AcDbSymbolTable
 70
     0
  0
ENDTAB
  0
TABLE
  2
APPID
  5
9
330
0
100
AcDbSymbolTable
 70
     2
  0
APPID
  5
12
330
9
100
AcDbSymbolTableRecord
100
AcDbRegAppTableRecord
  2
ACAD
 70
     0
  0
ENDTAB
  0
TABLE
  2
DIMSTYLE
  5
A
330
0
100
AcDbSymbolTable
 70
     1
  0
DIMSTYLE
105
27
330
A
100
AcDbSymbolTableRecord
100
AcDbDimStyleTableRecord
  2
ISO-25
 70
     0
  3

  4

  5

  6

  7

 40
1.0
 41
2.5
 42
0.625
 43
3.75
 44
1.25
 45
0.0
 46
0.0
 47
0.0
 48
0.0
140
2.5
141
2.5
142
0.0
143
0.03937007874016
144
1.0
145
0.0
146
1.0
147
0.625
 71
     0
 72
     0
 73
     0
 74
     0
 75
     0
 76
     0
 77
     1
 78
     8
170
     0
171
     3
172
     1
173
     0
174
     0
175
     0
176
     0
177
     0
178
     0
270
     2
271
     2
272
     2
273
     2
274
     3
340
11
275
     0
280
     0
281
     0
282
     0
283
     0
284
     8
285
     0
286
     0
287
     3
288
     0
  0
ENDTAB
  0
TABLE
  2
BLOCK_RECORD
  5
1
330
0
100
AcDbSymbolTable
 70
     1
  0
BLOCK_RECORD
  5
1F
330
1
100
AcDbSymbolTableRecord
100
AcDbBlockTableRecord
  2
*MODEL_SPACE
  0
BLOCK_RECORD
  5
1B
330
1
100
AcDbSymbolTableRecord
100
AcDbBlockTableRecord
  2
*PAPER_SPACE
  0
ENDTAB
  0
ENDSEC
  0
SECTION
  2
BLOCKS
  0
BLOCK
  5
20
330
1F
100
AcDbEntity
  8
0
100
AcDbBlockBegin
  2
*MODEL_SPACE
 70
     0
 10
0.0
 20
0.0
 30
0.0
  3
*MODEL_SPACE
  1

  0
ENDBLK
  5
21
330
1F
100
AcDbEntity
  8
0
100
AcDbBlockEnd
  0
BLOCK
  5
1C
330
1B
100
AcDbEntity
 67
     1
  8
0
100
AcDbBlockBegin
  2
*PAPER_SPACE
  1

  0
ENDBLK
  5
1D
330
1B
100
AcDbEntity
 67
     1
  8
0
100
AcDbBlockEnd
  0
ENDSEC
  0
SECTION
  2
ENTITIES
  0
LINE
  5
100
100
AcDbEntity
  8
text
 62
5
100
AcDbLine
 10
0.072268
 20
10.767032
 30
0.0
 11
8.072621
 21
10.767032
 31
0.0
  0
LINE
  5
101
100
AcDbEntity
  8
text
 62
5
100
AcDbLine
 10
8.072621
 20
10.767032
 30
0.0
 11
8.072621
 21
0.247634
 31
0.0
  0
LINE
  5
102
100
AcDbEntity
  8
text
 62
5
100
AcDbLine
 10
8.072621
 20
0.247634
 30
0.0
 11
0.072268
 21
0.247634
 31
0.0
  0
LINE
  5
103
100
AcDbEntity
  8
text
 62
5
100
AcDbLine
 10
0.072268
 20
0.247634
 30
0.0
 11
0.072268
 21
10.767032
 31
0.0
  0
LINE
  5
104
100
AcDbEntity
  8
text
 62
1
100
AcDbLine
 10
1.433731
 20
5.546075
 30
0.0
 11
1.027811
 21
5.546075
 31
0.0
  0
LINE
  5
105
100
AcDbEntity
  8
text
 62
1
100
AcDbLine
 10
1.027811
 20
5.546075
 30
0.0
 11
1.027811
 21
10.601956
 31
0.0
  0
LINE
  5
106
100
AcDbEntity
  8
text
 62
1
100
AcDbLine
 10
1.027811
 20
10.601956
 30
0.0
 11
2.151849
 21
10.601956
 31
0.0
  0
LINE
  5
107
100
AcDbEntity
  8
text
 62
1
100
AcDbLine
 10
2.151849
 20
10.601956
 30
0.0
 11
2.151849
 21
5.546075
 31
0.0
  0
LINE
  5
108
100
AcDbEntity
  8
text
 62
1
100
AcDbLine
 10
2.151849
 20
5.546075
 30
0.0
 11
1.027811
 21
5.546075
 31
0.0
  0
LINE
  5
109
100
AcDbEntity
  8
text
 62
1
100
AcDbLine
 10
1.993281
 20
10.477043
 30
0.0
 11
1.993281
 21
10.477043
 31
0.0
  0
SPLINE
  5
10a
100
AcDbEntity
  8
text
 62
1
100
AcDbSpline
 70
0
 71
3
 72
19
 73
15
 74
13
 40
0.000000
 40
0.000000
 40
0.000000
 40
0.000000
 40
0.004968
 40
0.010009
 40
0.015421
 40
0.020828
 40
0.025852
 40
0.030816
 40
0.035784
 40
0.040812
 40
0.046220
 40
0.051633
 40
0.056679
 40
0.061650
 40
0.061650
 40
0.061650
 40
0.061650
 10
1.993281
 20
10.477043
 30
0.0
 10
1.992981
 20
10.475368
 30
0.0
 10
1.992378
 20
10.471993
 30
0.0
 10
1.988165
 20
10.468451
 30
0.0
 10
1.982877
 20
10.467179
 30
0.0
 10
1.977525
 20
10.468446
 30
0.0
 10
1.973515
 20
10.472000
 30
0.0
 10
1.971979
 20
10.477044
 30
0.0
 10
1.973516
 20
10.482089
 30
0.0
 10
1.977523
 20
10.485649
 30
0.0
 10
1.982877
 20
10.486922
 30
0.0
 10
1.988167
 20
10.485644
 30
0.0
 10
1.992378
 20
10.482096
 30
0.0
 10
1.992981
 20
10.478719
 30
0.0
 10
1.993281
 20
10.477043
 30
0.0
 11
1.993281
 21
10.477043
 31
0.0
 11
1.991858
 21
10.472283
 31
0.0
 11
1.988120
 21
10.468900
 31
0.0
 11
1.982864
 21
10.467612
 31
0.0
 11
1.977612
 21
10.468900
 31
0.0
 11
1.973898
 21
10.472283
 31
0.0
 11
1.972489
 21
10.477043
 31
0.0
 11
1.973898
 21
10.481806
 31
0.0
 11
1.977612
 21
10.485196
 31
0.0
 11
1.982864
 21
10.486487
 31
0.0
 11
1.988120
 21
10.485196
 31
0.0
 11
1.991858
 21
10.481806
 31
0.0
 11
1.993281
 21
10.477043
 31
0.0
  0
LINE
  5
10b
100
AcDbEntity
  8
text
 62
1
100
AcDbLine
 10
1.304831
 20
5.665662
 30
0.0
 11
1.304831
 21
5.665662
 31
0.0
  0
SPLINE
  5
10c
100
AcDbEntity
  8
text
 62
1
100
AcDbSpline
 70
0
 71
3
 72
19
 73
15
 74
13
 40
0.000000
 40
0.000000
 40
0.000000
 40
0.000000
 40
0.003531
 40
0.007403
 40
0.011798
 40
0.016178
 40
0.020063
 40
0.023598
 40
0.027124
 40
0.031006
 40
0.035387
 40
0.039781
 40
0.043651
 40
0.047173
 40
0.047173
 40
0.047173
 40
0.047173
 10
1.304831
 20
5.665662
 30
0.0
 10
1.304568
 20
5.664476
 30
0.0
 10
1.304017
 20
5.661989
 30
0.0
 10
1.300526
 20
5.659595
 30
0.0
 10
1.296333
 20
5.658740
 30
0.0
 10
1.292069
 20
5.659602
 30
0.0
 10
1.288755
 20
5.661985
 30
0.0
 10
1.287329
 20
5.665660
 30
0.0
 10
1.288756
 20
5.669332
 30
0.0
 10
1.292070
 20
5.671709
 30
0.0
 10
1.296333
 20
5.672571
 30
0.0
 10
1.300525
 20
5.671716
 30
0.0
 10
1.304015
 20
5.669328
 30
0.0
 10
1.304567
 20
5.666845
 30
0.0
 10
1.304831
 20
5.665662
 30
0.0
 11
1.304831
 21
5.665662
 31
0.0
 11
1.303670
 21
5.662328
 31
0.0
 11
1.300617
 21
5.659946
 31
0.0
 11
1.296317
 21
5.659037
 31
0.0
 11
1.292032
 21
5.659946
 31
0.0
 11
1.288963
 21
5.662328
 31
0.0
 11
1.287789
 21
5.665662
 31
0.0
 11
1.288963
 21
5.668987
 31
0.0
 11
1.292032
 21
5.671365
 31
0.0
 11
1.296317
 21
5.672273
 31
0.0
 11
1.300617
 21
5.671365
 31
0.0
 11
1.303670
 21
5.668987
 31
0.0
 11
1.304831
 21
5.665662
 31
0.0
  0
LINE
  5
10d
100
AcDbEntity
  8
text
 62
1
100
AcDbLine
 10
1.413328
 20
9.550309
 30
0.0
 11
1.506258
 21
9.550309
 31
0.0
  0
LINE
  5
10e
100
AcDbEntity
  8
text
 62
1
100
AcDbLine
 10
1.459814
 20
9.503823
 30
0.0
 11
1.459814
 21
9.596809
 31
0.0
  0
SPLINE
  5
10f
100
AcDbEntity
  8
text
 62
1
100
AcDbSpline
 70
0
 71
3
 72
19
 73
15
 74
13
 40
0.000000
 40
0.000000
 40
0.000000
 40
0.000000
 40
0.062845
 40
0.120074
 40
0.182949
 40
0.245779
 40
0.302976
 40
0.365816
 40
0.428650
 40
0.485850
 40
0.548681
 40
0.611557
 40
0.668788
 40
0.731627
 40
0.731627
 40
0.731627
 40
0.731627
 10
1.343550
 20
9.550309
 30
0.0
 10
1.346038
 20
9.571663
 30
0.0
 10
1.350793
 20
9.612463
 30
0.0
 10
1.397939
 20
9.658239
 30
0.0
 10
1.459714
 20
9.670851
 30
0.0
 10
1.521969
 20
9.658239
 30
0.0
 10
1.567694
 20
9.612448
 30
0.0
 10
1.580298
 20
9.550310
 30
0.0
 10
1.567692
 20
9.488174
 30
0.0
 10
1.521970
 20
9.442382
 30
0.0
 10
1.459714
 20
9.429765
 30
0.0
 10
1.397938
 20
9.442383
 30
0.0
 10
1.350795
 20
9.488159
 30
0.0
 10
1.346039
 20
9.528957
 30
0.0
 10
1.343550
 20
9.550309
 30
0.0
 11
1.343550
 21
9.550309
 31
0.0
 11
1.358189
 21
9.611424
 31
0.0
 11
1.398665
 21
9.651883
 31
0.0
 11
1.459814
 21
9.666517
 31
0.0
 11
1.520915
 21
9.651883
 31
0.0
 11
1.561347
 21
9.611424
 31
0.0
 11
1.575967
 21
9.550309
 31
0.0
 11
1.561347
 21
9.489199
 31
0.0
 11
1.520915
 21
9.448738
 31
0.0
 11
1.459814
 21
9.434100
 31
0.0
 11
1.398665
 21
9.448738
 31
0.0
 11
1.358189
 21
9.489199
 31
0.0
 11
1.343550
 21
9.550309
 31
0.0
  0
LINE
  5
110
100
AcDbEntity
  8
text
 62
1
100
AcDbLine
 10
1.413328
 20
6.601490
 30
0.0
 11
1.506258
 21
6.601490
 31
0.0
  0
LINE
  5
111
100
AcDbEntity
  8
text
 62
1
100
AcDbLine
 10
1.459814
 20
6.555004
 30
0.0
 11
1.459814
 21
6.647990
 31
0.0
  0
SPLINE
  5
112
100
AcDbEntity
  8
text
 62
1
100
AcDbSpline
 70
0
 71
3
 72
19
 73
15
 74
13
 40
0.000000
 40
0.000000
 40
0.000000
 40
0.000000
 40
0.062845
 40
0.120074
 40
0.182949
 40
0.245779
 40
0.302976
 40
0.365816
 40
0.428650
 40
0.485850
 40
0.548681
 40
0.611557
 40
0.668788
 40
0.731627
 40
0.731627
 40
0.731627
 40
0.731627
 10
1.343550
 20
6.601490
 30
0.0
 10
1.346038
 20
6.622844
 30
0.0
 10
1.350793
 20
6.663644
 30
0.0
 10
1.397939
 20
6.709420
 30
0.0
 10
1.459714
 20
6.722032
 30
0.0
 10
1.521969
 20
6.709420
 30
0.0
 10
1.567694
 20
6.663629
 30
0.0
 10
1.580298
 20
6.601492
 30
0.0
 10
1.567692
 20
6.539355
 30
0.0
 10
1.521970
 20
6.493563
 30
0.0
 10
1.459714
 20
6.480946
 30
0.0
 10
1.397938
 20
6.493564
 30
0.0
 10
1.350795
 20
6.539340
 30
0.0
 10
1.346039
 20
6.580138
 30
0.0
 10
1.343550
 20
6.601490
 30
0.0
 11
1.343550
 21
6.601490
 31
0.0
 11
1.358189
 21
6.662606
 31
0.0
 11
1.398665
 21
6.703064
 31
0.0
 11
1.459814
 21
6.717698
 31
0.0
 11
1.520915
 21
6.703064
 31
0.0
 11
1.561347
 21
6.662606
 31
0.0
 11
1.575967
 21
6.601490
 31
0.0
 11
1.561347
 21
6.540380
 31
0.0
 11
1.520915
 21
6.499919
 31
0.0
 11
1.459814
 21
6.485281
 31
0.0
 11
1.398665
 21
6.499919
 31
0.0
 11
1.358189
 21
6.540380
 31
0.0
 11
1.343550
 21
6.601490
 31
0.0
  0
LINE
  5
113
100
AcDbEntity
  8
text
 62
1
100
AcDbLine
 10
1.427107
 20
8.077868
 30
0.0
 11
1.520038
 21
8.077868
 31
0.0
  0
LINE
  5
114
100
AcDbEntity
  8
text
 62
1
100
AcDbLine
 10
1.473593
 20
8.031382
 30
0.0
 11
1.473593
 21
8.124368
 31
0.0
  0
LINE
  5
115
100
AcDbEntity
  8
text
 62
1
100
AcDbLine
 10
-2.662406
 20
9.997347
 30
0.0
 11
-2.837754
 21
9.681639
 31
0.0
  0
LINE
  5
116
100
AcDbEntity
  8
text
 62
1
100
AcDbLine
 10
-2.662406
 20
9.997347
 30
0.0
 11
-2.985101
 21
9.836000
 31
0.0
  0
LINE
  5
117
100
AcDbEntity
  8
text
 62
1
100
AcDbLine
 10
-2.662406
 20
9.997347
 30
0.0
 11
-3.020156
 21
10.039444
 31
0.0
  0
LINE
  5
118
100
AcDbEntity
  8
text
 62
1
100
AcDbLine
 10
-2.662406
 20
9.997347
 30
0.0
 11
-2.935948
 21
10.228847
 31
0.0
  0
LINE
  5
119
100
AcDbEntity
  8
text
 62
1
100
AcDbLine
 10
-2.662406
 20
9.997347
 30
0.0
 11
-2.760601
 21
10.341097
 31
0.0
  0
LINE
  5
11a
100
AcDbEntity
  8
text
 62
1
100
AcDbLine
 10
-2.662406
 20
9.997347
 30
0.0
 11
-2.564156
 21
10.341097
 31
0.0
  0
LINE
  5
11b
100
AcDbEntity
  8
text
 62
1
100
AcDbLine
 10
-2.662406
 20
9.997347
 30
0.0
 11
-2.388809
 21
10.228847
 31
0.0
  0
LINE
  5
11c
100
AcDbEntity
  8
text
 62
1
100
AcDbLine
 10
-2.662406
 20
9.997347
 30
0.0
 11
-2.304601
 21
10.039444
 31
0.0
  0
LINE
  5
11d
100
AcDbEntity
  8
text
 62
1
100
AcDbLine
 10
-2.662406
 20
9.997347
 30
0.0
 11
-2.339698
 21
9.836000
 31
0.0
  0
LINE
  5
11e
100
AcDbEntity
  8
text
 62
1
100
AcDbLine
 10
-2.662406
 20
9.997347
 30
0.0
 11
-2.480004
 21
9.681639
 31
0.0
  0
LINE
  5
11f
100
AcDbEntity
  8
text
 62
1
100
AcDbLine
 10
-2.662406
 20
9.997347
 30
0.0
 11
-2.816698
 21
9.723750
 31
0.0
  0
LINE
  5
120
100
AcDbEntity
  8
text
 62
1
100
AcDbLine
 10
-2.662406
 20
9.997347
 30
0.0
 11
-2.858795
 21
9.744792
 31
0.0
  0
LINE
  5
121
100
AcDbEntity
  8
text
 62
1
100
AcDbLine
 10
-2.662406
 20
9.997347
 30
0.0
 11
-2.893906
 21
9.779847
 31
0.0
  0
LINE
  5
122
100
AcDbEntity
  8
text
 62
1
100
AcDbLine
 10
-2.662406
 20
9.997347
 30
0.0
 11
-2.921948
 21
9.814944
 31
0.0
  0
LINE
  5
123
100
AcDbEntity
  8
text
 62
1
100
AcDbLine
 10
-2.662406
 20
9.997347
 30
0.0
 11
-2.950004
 21
9.857042
 31
0.0
  0
LINE
  5
124
100
AcDbEntity
  8
text
 62
1
100
AcDbLine
 10
-2.662406
 20
9.997347
 30
0.0
 11
-2.964059
 21
9.899153
 31
0.0
  0
LINE
  5
125
100
AcDbEntity
  8
text
 62
1
100
AcDbLine
 10
-2.662406
 20
9.997347
 30
0.0
 11
-2.978045
 21
9.948250
 31
0.0
  0
LINE
  5
126
100
AcDbEntity
  8
text
 62
1
100
AcDbLine
 10
-2.662406
 20
9.997347
 30
0.0
 11
-2.978045
 21
9.990292
 31
0.0
  0
LINE
  5
127
100
AcDbEntity
  8
text
 62
1
100
AcDbLine
 10
-2.662406
 20
9.997347
 30
0.0
 11
-2.978045
 21
10.032389
 31
0.0
  0
LINE
  5
128
100
AcDbEntity
  8
text
 62
1
100
AcDbLine
 10
-2.662406
 20
9.997347
 30
0.0
 11
-2.971045
 21
10.074500
 31
0.0
  0
LINE
  5
129
100
AcDbEntity
  8
text
 62
1
100
AcDbLine
 10
-2.662406
 20
9.997347
 30
0.0
 11
-2.957004
 21
10.123597
 31
0.0
  0
LINE
  5
12a
100
AcDbEntity
  8
text
 62
1
100
AcDbLine
 10
-2.662406
 20
9.997347
 30
0.0
 11
-2.935948
 21
10.165694
 31
0.0
  0
LINE
  5
12b
100
AcDbEntity
  8
text
 62
1
100
AcDbLine
 10
-2.662406
 20
9.997347
 30
0.0
 11
-2.907906
 21
10.200792
 31
0.0
  0
LINE
  5
12c
100
AcDbEntity
  8
text
 62
1
100
AcDbLine
 10
-2.662406
 20
9.997347
 30
0.0
 11
-2.872851
 21
10.235847
 31
0.0
  0
LINE
  5
12d
100
AcDbEntity
  8
text
 62
1
100
AcDbLine
 10
-2.662406
 20
9.997347
 30
0.0
 11
-2.837754
 21
10.263889
 31
0.0
  0
LINE
  5
12e
100
AcDbEntity
  8
text
 62
1
100
AcDbLine
 10
-2.662406
 20
9.997347
 30
0.0
 11
-2.795656
 21
10.284944
 31
0.0
  0
LINE
  5
12f
100
AcDbEntity
  8
text
 62
1
100
AcDbLine
 10
-2.662406
 20
9.997347
 30
0.0
 11
-2.753601
 21
10.306000
 31
0.0
  0
LINE
  5
130
100
AcDbEntity
  8
text
 62
1
100
AcDbLine
 10
-2.662406
 20
9.997347
 30
0.0
 11
-2.704448
 21
10.313000
 31
0.0
  0
LINE
  5
131
100
AcDbEntity
  8
text
 62
1
100
AcDbLine
 10
-2.662406
 20
9.997347
 30
0.0
 11
-2.662406
 21
10.320042
 31
0.0
  0
LINE
  5
132
100
AcDbEntity
  8
text
 62
1
100
AcDbLine
 10
-2.662406
 20
9.997347
 30
0.0
 11
-2.620309
 21
10.313000
 31
0.0
  0
LINE
  5
133
100
AcDbEntity
  8
text
 62
1
100
AcDbLine
 10
-2.662406
 20
9.997347
 30
0.0
 11
-2.571198
 21
10.306000
 31
0.0
  0
LINE
  5
134
100
AcDbEntity
  8
text
 62
1
100
AcDbLine
 10
-2.662406
 20
9.997347
 30
0.0
 11
-2.529101
 21
10.284944
 31
0.0
  0
LINE
  5
135
100
AcDbEntity
  8
text
 62
1
100
AcDbLine
 10
-2.662406
 20
9.997347
 30
0.0
 11
-2.487004
 21
10.263889
 31
0.0
  0
LINE
  5
136
100
AcDbEntity
  8
text
 62
1
100
AcDbLine
 10
-2.662406
 20
9.997347
 30
0.0
 11
-2.451948
 21
10.235847
 31
0.0
  0
LINE
  5
137
100
AcDbEntity
  8
text
 62
1
100
AcDbLine
 10
-2.662406
 20
9.997347
 30
0.0
 11
-2.416851
 21
10.200792
 31
0.0
  0
LINE
  5
138
100
AcDbEntity
  8
text
 62
1
100
AcDbLine
 10
-2.662406
 20
9.997347
 30
0.0
 11
-2.388809
 21
10.165694
 31
0.0
  0
LINE
  5
139
100
AcDbEntity
  8
text
 62
1
100
AcDbLine
 10
-2.662406
 20
9.997347
 30
0.0
 11
-2.367754
 21
10.123597
 31
0.0
  0
LINE
  5
13a
100
AcDbEntity
  8
text
 62
1
100
AcDbLine
 10
-2.662406
 20
9.997347
 30
0.0
 11
-2.353698
 21
10.074500
 31
0.0
  0
LINE
  5
13b
100
AcDbEntity
  8
text
 62
1
100
AcDbLine
 10
-2.662406
 20
9.997347
 30
0.0
 11
-2.346698
 21
10.032389
 31
0.0
  0
LINE
  5
13c
100
AcDbEntity
  8
text
 62
1
100
AcDbLine
 10
-2.662406
 20
9.997347
 30
0.0
 11
-2.346698
 21
9.990292
 31
0.0
  0
LINE
  5
13d
100
AcDbEntity
  8
text
 62
1
100
AcDbLine
 10
-2.662406
 20
9.997347
 30
0.0
 11
-2.346698
 21
9.948250
 31
0.0
  0
LINE
  5
13e
100
AcDbEntity
  8
text
 62
1
100
AcDbLine
 10
-2.662406
 20
9.997347
 30
0.0
 11
-2.360754
 21
9.899153
 31
0.0
  0
LINE
  5
13f
100
AcDbEntity
  8
text
 62
1
100
AcDbLine
 10
-2.662406
 20
9.997347
 30
0.0
 11
-2.374754
 21
9.857042
 31
0.0
  0
LINE
  5
140
100
AcDbEntity
  8
text
 62
1
100
AcDbLine
 10
-2.662406
 20
9.997347
 30
0.0
 11
-2.402795
 21
9.814944
 31
0.0
  0
LINE
  5
141
100
AcDbEntity
  8
text
 62
1
100
AcDbLine
 10
-2.662406
 20
9.997347
 30
0.0
 11
-2.430906
 21
9.779847
 31
0.0
  0
LINE
  5
142
100
AcDbEntity
  8
text
 62
1
100
AcDbLine
 10
-2.662406
 20
9.997347
 30
0.0
 11
-2.465948
 21
9.744792
 31
0.0
  0
LINE
  5
143
100
AcDbEntity
  8
text
 62
1
100
AcDbLine
 10
-2.662406
 20
9.997347
 30
0.0
 11
-2.501059
 21
9.723750
 31
0.0
  0
SPLINE
  5
144
100
AcDbEntity
  8
text
 62
1
100
AcDbSpline
 70
0
 71
3
 72
19
 73
15
 74
13
 40
0.000000
 40
0.000000
 40
0.000000
 40
0.000000
 40
0.062845
 40
0.120074
 40
0.182949
 40
0.245779
 40
0.302976
 40
0.365816
 40
0.428650
 40
0.485850
 40
0.548681
 40
0.611557
 40
0.668788
 40
0.731627
 40
0.731627
 40
0.731627
 40
0.731627
 10
1.357329
 20
8.077868
 30
0.0
 10
1.359818
 20
8.099222
 30
0.0
 10
1.364573
 20
8.140022
 30
0.0
 10
1.411718
 20
8.185798
 30
0.0
 10
1.473493
 20
8.198410
 30
0.0
 10
1.535749
 20
8.185798
 30
0.0
 10
1.581473
 20
8.140007
 30
0.0
 10
1.594077
 20
8.077869
 30
0.0
 10
1.581471
 20
8.015733
 30
0.0
 10
1.535749
 20
7.969941
 30
0.0
 10
1.473493
 20
7.957324
 30
0.0
 10
1.411717
 20
7.969942
 30
0.0
 10
1.364575
 20
8.015718
 30
0.0
 10
1.359819
 20
8.056516
 30
0.0
 10
1.357329
 20
8.077868
 30
0.0
 11
1.357329
 21
8.077868
 31
0.0
 11
1.371969
 21
8.138983
 31
0.0
 11
1.412445
 21
8.179442
 31
0.0
 11
1.473593
 21
8.194076
 31
0.0
 11
1.534695
 21
8.179442
 31
0.0
 11
1.575126
 21
8.138983
 31
0.0
 11
1.589746
 21
8.077868
 31
0.0
 11
1.575126
 21
8.016758
 31
0.0
 11
1.534695
 21
7.976297
 31
0.0
 11
1.473593
 21
7.961659
 31
0.0
 11
1.412445
 21
7.976297
 31
0.0
 11
1.371969
 21
8.016758
 31
0.0
 11
1.357329
 21
8.077868
 31
0.0
  0
LINE
  5
145
100
AcDbEntity
  8
text
 62
1
100
AcDbLine
 10
-2.704448
 20
9.997347
 30
0.0
 11
-2.620309
 21
9.997347
 31
0.0
  0
LINE
  5
146
100
AcDbEntity
  8
text
 62
1
100
AcDbLine
 10
-2.662406
 20
9.955250
 30
0.0
 11
-2.662406
 21
10.039444
 31
0.0
  0
SPLINE
  5
147
100
AcDbEntity
  8
text
 62
1
100
AcDbSpline
 70
0
 71
3
 72
19
 73
15
 74
13
 40
0.000000
 40
0.000000
 40
0.000000
 40
0.000000
 40
0.056881
 40
0.108680
 40
0.165561
 40
0.222480
 40
0.274289
 40
0.331171
 40
0.388090
 40
0.439909
 40
0.496829
 40
0.553710
 40
0.605520
 40
0.662438
 40
0.662438
 40
0.662438
 40
0.662438
 10
-2.767601
 20
9.997347
 30
0.0
 10
-2.765347
 20
10.016674
 30
0.0
 10
-2.761041
 20
10.053601
 30
0.0
 10
-2.718390
 20
10.095037
 30
0.0
 10
-2.662469
 20
10.106468
 30
0.0
 10
-2.606105
 20
10.095043
 30
0.0
 10
-2.564667
 20
10.053606
 30
0.0
 10
-2.553227
 20
9.997335
 30
0.0
 10
-2.564662
 20
9.941058
 30
0.0
 10
-2.606099
 20
9.899597
 30
0.0
 10
-2.662469
 20
9.888170
 30
0.0
 10
-2.718396
 20
9.899603
 30
0.0
 10
-2.761047
 20
9.941064
 30
0.0
 10
-2.765349
 20
9.978007
 30
0.0
 10
-2.767601
 20
9.997347
 30
0.0
 11
-2.767601
 21
9.997347
 31
0.0
 11
-2.754350
 21
10.052663
 31
0.0
 11
-2.717722
 21
10.089291
 31
0.0
 11
-2.662406
 21
10.102542
 31
0.0
 11
-2.607051
 21
10.089291
 31
0.0
 11
-2.570409
 21
10.052663
 31
0.0
 11
-2.557156
 21
9.997347
 31
0.0
 11
-2.570409
 21
9.941992
 31
0.0
 11
-2.607051
 21
9.905350
 31
0.0
 11
-2.662406
 21
9.892097
 31
0.0
 11
-2.717722
 21
9.905350
 31
0.0
 11
-2.754350
 21
9.941992
 31
0.0
 11
-2.767601
 21
9.997347
 31
0.0
  0
LINE
  5
148
100
AcDbEntity
  8
text
 62
7
100
AcDbLine
 10
-2.654045
 20
9.995181
 30
0.0
 11
-2.654045
 21
9.995181
 31
0.0
  0
LINE
  5
149
100
AcDbEntity
  8
text
 62
1
100
AcDbLine
 10
1.728731
 20
8.910247
 30
0.0
 11
1.553384
 21
8.594538
 31
0.0
  0
LINE
  5
14a
100
AcDbEntity
  8
text
 62
1
100
AcDbLine
 10
1.728731
 20
8.910247
 30
0.0
 11
1.406037
 21
8.748899
 31
0.0
  0
LINE
  5
14b
100
AcDbEntity
  8
text
 62
1
100
AcDbLine
 10
1.728731
 20
8.910247
 30
0.0
 11
1.370981
 21
8.952344
 31
0.0
  0
LINE
  5
14c
100
AcDbEntity
  8
text
 62
1
100
AcDbLine
 10
1.728731
 20
8.910247
 30
0.0
 11
1.455189
 21
9.141747
 31
0.0
  0
LINE
  5
14d
100
AcDbEntity
  8
text
 62
1
100
AcDbLine
 10
1.728731
 20
8.910247
 30
0.0
 11
1.630537
 21
9.253997
 31
0.0
  0
LINE
  5
14e
100
AcDbEntity
  8
text
 62
1
100
AcDbLine
 10
1.728731
 20
8.910247
 30
0.0
 11
1.826981
 21
9.253997
 31
0.0
  0
LINE
  5
14f
100
AcDbEntity
  8
text
 62
1
100
AcDbLine
 10
1.728731
 20
8.910247
 30
0.0
 11
2.002328
 21
9.141747
 31
0.0
  0
LINE
  5
150
100
AcDbEntity
  8
text
 62
1
100
AcDbLine
 10
1.728731
 20
8.910247
 30
0.0
 11
2.086537
 21
8.952344
 31
0.0
  0
LINE
  5
151
100
AcDbEntity
  8
text
 62
1
100
AcDbLine
 10
1.728731
 20
8.910247
 30
0.0
 11
2.051439
 21
8.748899
 31
0.0
  0
LINE
  5
152
100
AcDbEntity
  8
text
 62
1
100
AcDbLine
 10
1.728731
 20
8.910247
 30
0.0
 11
1.911134
 21
8.594538
 31
0.0
  0
LINE
  5
153
100
AcDbEntity
  8
text
 62
1
100
AcDbLine
 10
1.728731
 20
8.910247
 30
0.0
 11
1.574439
 21
8.636649
 31
0.0
  0
LINE
  5
154
100
AcDbEntity
  8
text
 62
1
100
AcDbLine
 10
1.728731
 20
8.910247
 30
0.0
 11
1.532342
 21
8.657691
 31
0.0
  0
LINE
  5
155
100
AcDbEntity
  8
text
 62
1
100
AcDbLine
 10
1.728731
 20
8.910247
 30
0.0
 11
1.497231
 21
8.692747
 31
0.0
  0
LINE
  5
156
100
AcDbEntity
  8
text
 62
1
100
AcDbLine
 10
1.728731
 20
8.910247
 30
0.0
 11
1.469189
 21
8.727844
 31
0.0
  0
LINE
  5
157
100
AcDbEntity
  8
text
 62
1
100
AcDbLine
 10
1.728731
 20
8.910247
 30
0.0
 11
1.441134
 21
8.769941
 31
0.0
  0
LINE
  5
158
100
AcDbEntity
  8
text
 62
1
100
AcDbLine
 10
1.728731
 20
8.910247
 30
0.0
 11
1.427078
 21
8.812052
 31
0.0
  0
LINE
  5
159
100
AcDbEntity
  8
text
 62
1
100
AcDbLine
 10
1.728731
 20
8.910247
 30
0.0
 11
1.413092
 21
8.861149
 31
0.0
  0
LINE
  5
15a
100
AcDbEntity
  8
text
 62
1
100
AcDbLine
 10
1.728731
 20
8.910247
 30
0.0
 11
1.413092
 21
8.903191
 31
0.0
  0
LINE
  5
15b
100
AcDbEntity
  8
text
 62
1
100
AcDbLine
 10
1.728731
 20
8.910247
 30
0.0
 11
1.413092
 21
8.945288
 31
0.0
  0
LINE
  5
15c
100
AcDbEntity
  8
text
 62
1
100
AcDbLine
 10
1.728731
 20
8.910247
 30
0.0
 11
1.420092
 21
8.987399
 31
0.0
  0
LINE
  5
15d
100
AcDbEntity
  8
text
 62
1
100
AcDbLine
 10
1.728731
 20
8.910247
 30
0.0
 11
1.434134
 21
9.036497
 31
0.0
  0
LINE
  5
15e
100
AcDbEntity
  8
text
 62
1
100
AcDbLine
 10
1.728731
 20
8.910247
 30
0.0
 11
1.455189
 21
9.078594
 31
0.0
  0
LINE
  5
15f
100
AcDbEntity
  8
text
 62
1
100
AcDbLine
 10
1.728731
 20
8.910247
 30
0.0
 11
1.483231
 21
9.113691
 31
0.0
  0
LINE
  5
160
100
AcDbEntity
  8
text
 62
1
100
AcDbLine
 10
1.728731
 20
8.910247
 30
0.0
 11
1.518287
 21
9.148747
 31
0.0
  0
LINE
  5
161
100
AcDbEntity
  8
text
 62
1
100
AcDbLine
 10
1.728731
 20
8.910247
 30
0.0
 11
1.553384
 21
9.176788
 31
0.0
  0
LINE
  5
162
100
AcDbEntity
  8
text
 62
1
100
AcDbLine
 10
1.728731
 20
8.910247
 30
0.0
 11
1.595481
 21
9.197844
 31
0.0
  0
LINE
  5
163
100
AcDbEntity
  8
text
 62
1
100
AcDbLine
 10
1.728731
 20
8.910247
 30
0.0
 11
1.637537
 21
9.218899
 31
0.0
  0
LINE
  5
164
100
AcDbEntity
  8
text
 62
1
100
AcDbLine
 10
1.728731
 20
8.910247
 30
0.0
 11
1.686689
 21
9.225899
 31
0.0
  0
LINE
  5
165
100
AcDbEntity
  8
text
 62
1
100
AcDbLine
 10
1.728731
 20
8.910247
 30
0.0
 11
1.728731
 21
9.232941
 31
0.0
  0
LINE
  5
166
100
AcDbEntity
  8
text
 62
1
100
AcDbLine
 10
1.728731
 20
8.910247
 30
0.0
 11
1.770828
 21
9.225899
 31
0.0
  0
LINE
  5
167
100
AcDbEntity
  8
text
 62
1
100
AcDbLine
 10
1.728731
 20
8.910247
 30
0.0
 11
1.819939
 21
9.218899
 31
0.0
  0
LINE
  5
168
100
AcDbEntity
  8
text
 62
1
100
AcDbLine
 10
1.728731
 20
8.910247
 30
0.0
 11
1.862037
 21
9.197844
 31
0.0
  0
LINE
  5
169
100
AcDbEntity
  8
text
 62
1
100
AcDbLine
 10
1.728731
 20
8.910247
 30
0.0
 11
1.904134
 21
9.176788
 31
0.0
  0
LINE
  5
16a
100
AcDbEntity
  8
text
 62
1
100
AcDbLine
 10
1.728731
 20
8.910247
 30
0.0
 11
1.939189
 21
9.148747
 31
0.0
  0
LINE
  5
16b
100
AcDbEntity
  8
text
 62
1
100
AcDbLine
 10
1.728731
 20
8.910247
 30
0.0
 11
1.974287
 21
9.113691
 31
0.0
  0
LINE
  5
16c
100
AcDbEntity
  8
text
 62
1
100
AcDbLine
 10
1.728731
 20
8.910247
 30
0.0
 11
2.002328
 21
9.078594
 31
0.0
  0
LINE
  5
16d
100
AcDbEntity
  8
text
 62
1
100
AcDbLine
 10
1.728731
 20
8.910247
 30
0.0
 11
2.023384
 21
9.036497
 31
0.0
  0
LINE
  5
16e
100
AcDbEntity
  8
text
 62
1
100
AcDbLine
 10
1.728731
 20
8.910247
 30
0.0
 11
2.037439
 21
8.987399
 31
0.0
  0
LINE
  5
16f
100
AcDbEntity
  8
text
 62
1
100
AcDbLine
 10
1.728731
 20
8.910247
 30
0.0
 11
2.044439
 21
8.945288
 31
0.0
  0
LINE
  5
170
100
AcDbEntity
  8
text
 62
1
100
AcDbLine
 10
1.728731
 20
8.910247
 30
0.0
 11
2.044439
 21
8.903191
 31
0.0
  0
LINE
  5
171
100
AcDbEntity
  8
text
 62
1
100
AcDbLine
 10
1.728731
 20
8.910247
 30
0.0
 11
2.044439
 21
8.861149
 31
0.0
  0
LINE
  5
172
100
AcDbEntity
  8
text
 62
1
100
AcDbLine
 10
1.728731
 20
8.910247
 30
0.0
 11
2.030384
 21
8.812052
 31
0.0
  0
LINE
  5
173
100
AcDbEntity
  8
text
 62
1
100
AcDbLine
 10
1.728731
 20
8.910247
 30
0.0
 11
2.016384
 21
8.769941
 31
0.0
  0
LINE
  5
174
100
AcDbEntity
  8
text
 62
1
100
AcDbLine
 10
1.728731
 20
8.910247
 30
0.0
 11
1.988342
 21
8.727844
 31
0.0
  0
LINE
  5
175
100
AcDbEntity
  8
text
 62
1
100
AcDbLine
 10
1.728731
 20
8.910247
 30
0.0
 11
1.960231
 21
8.692747
 31
0.0
  0
LINE
  5
176
100
AcDbEntity
  8
text
 62
1
100
AcDbLine
 10
1.728731
 20
8.910247
 30
0.0
 11
1.925189
 21
8.657691
 31
0.0
  0
LINE
  5
177
100
AcDbEntity
  8
text
 62
1
100
AcDbLine
 10
1.728731
 20
8.910247
 30
0.0
 11
1.890078
 21
8.636649
 31
0.0
  0
SPLINE
  5
178
100
AcDbEntity
  8
text
 62
7
100
AcDbSpline
 70
0
 71
3
 72
19
 73
15
 74
13
 40
0.000000
 40
0.000000
 40
0.000000
 40
0.000000
 40
0.004461
 40
0.009016
 40
0.013919
 40
0.018821
 40
0.023376
 40
0.027838
 40
0.032333
 40
0.036893
 40
0.041795
 40
0.046697
 40
0.051257
 40
0.055753
 40
0.055753
 40
0.055753
 40
0.055753
 10
-2.654045
 20
9.995181
 30
0.0
 10
-2.654319
 20
9.993677
 30
0.0
 10
-2.654871
 20
9.990638
 30
0.0
 10
-2.658693
 20
9.987463
 30
0.0
 10
-2.663479
 20
9.986317
 30
0.0
 10
-2.668327
 20
9.987463
 30
0.0
 10
-2.671980
 20
9.990638
 30
0.0
 10
-2.673405
 20
9.995191
 30
0.0
 10
-2.671987
 20
9.999751
 30
0.0
 10
-2.668330
 20
10.002943
 30
0.0
 10
-2.663479
 20
10.004084
 30
0.0
 10
-2.658690
 20
10.002943
 30
0.0
 10
-2.654863
 20
9.999751
 30
0.0
 10
-2.654317
 20
9.996697
 30
0.0
 10
-2.654045
 20
9.995181
 30
0.0
 11
-2.654045
 21
9.995181
 31
0.0
 11
-2.655336
 21
9.990910
 31
0.0
 11
-2.658726
 21
9.987868
 31
0.0
 11
-2.663490
 21
9.986708
 31
0.0
 11
-2.668253
 21
9.987868
 31
0.0
 11
-2.671643
 21
9.990910
 31
0.0
 11
-2.672934
 21
9.995181
 31
0.0
 11
-2.671643
 21
9.999487
 31
0.0
 11
-2.668253
 21
10.002537
 31
0.0
 11
-2.663490
 21
10.003694
 31
0.0
 11
-2.658726
 21
10.002537
 31
0.0
 11
-2.655336
 21
9.999487
 31
0.0
 11
-2.654045
 21
9.995181
 31
0.0
  0
LINE
  5
179
100
AcDbEntity
  8
text
 62
1
100
AcDbLine
 10
1.686689
 20
8.910247
 30
0.0
 11
1.770828
 21
8.910247
 31
0.0
  0
LINE
  5
17a
100
AcDbEntity
  8
text
 62
1
100
AcDbLine
 10
1.728731
 20
8.868149
 30
0.0
 11
1.728731
 21
8.952344
 31
0.0
  0
SPLINE
  5
17b
100
AcDbEntity
  8
text
 62
1
100
AcDbSpline
 70
0
 71
3
 72
19
 73
15
 74
13
 40
0.000000
 40
0.000000
 40
0.000000
 40
0.000000
 40
0.056881
 40
0.108680
 40
0.165561
 40
0.222480
 40
0.274289
 40
0.331171
 40
0.388090
 40
0.439909
 40
0.496829
 40
0.553710
 40
0.605520
 40
0.662438
 40
0.662438
 40
0.662438
 40
0.662438
 10
1.623537
 20
8.910247
 30
0.0
 10
1.625790
 20
8.929573
 30
0.0
 10
1.630097
 20
8.966500
 30
0.0
 10
1.672747
 20
9.007937
 30
0.0
 10
1.728668
 20
9.019368
 30
0.0
 10
1.785033
 20
9.007942
 30
0.0
 10
1.826470
 20
8.966506
 30
0.0
 10
1.837911
 20
8.910234
 30
0.0
 10
1.826476
 20
8.853958
 30
0.0
 10
1.785038
 20
8.812496
 30
0.0
 10
1.728668
 20
8.801070
 30
0.0
 10
1.672742
 20
8.812502
 30
0.0
 10
1.630090
 20
8.853963
 30
0.0
 10
1.625789
 20
8.890907
 30
0.0
 10
1.623537
 20
8.910247
 30
0.0
 11
1.623537
 21
8.910247
 31
0.0
 11
1.636788
 21
8.965562
 31
0.0
 11
1.673415
 21
9.002190
 31
0.0
 11
1.728731
 21
9.015441
 31
0.0
 11
1.784086
 21
9.002190
 31
0.0
 11
1.820728
 21
8.965562
 31
0.0
 11
1.833981
 21
8.910247
 31
0.0
 11
1.820728
 21
8.854892
 31
0.0
 11
1.784086
 21
8.818250
 31
0.0
 11
1.728731
 21
8.804997
 31
0.0
 11
1.673415
 21
8.818250
 31
0.0
 11
1.636788
 21
8.854892
 31
0.0
 11
1.623537
 21
8.910247
 31
0.0
  0
LINE
  5
17c
100
AcDbEntity
  8
text
 62
7
100
AcDbLine
 10
1.737092
 20
8.908080
 30
0.0
 11
1.737092
 21
8.908080
 31
0.0
  0
LINE
  5
17d
100
AcDbEntity
  8
text
 62
1
100
AcDbLine
 10
1.731611
 20
7.260798
 30
0.0
 11
1.556263
 21
6.945090
 31
0.0
  0
LINE
  5
17e
100
AcDbEntity
  8
text
 62
1
100
AcDbLine
 10
1.731611
 20
7.260798
 30
0.0
 11
1.408916
 21
7.099451
 31
0.0
  0
LINE
  5
17f
100
AcDbEntity
  8
text
 62
1
100
AcDbLine
 10
1.731611
 20
7.260798
 30
0.0
 11
1.373861
 21
7.302895
 31
0.0
  0
LINE
  5
180
100
AcDbEntity
  8
text
 62
1
100
AcDbLine
 10
1.731611
 20
7.260798
 30
0.0
 11
1.458069
 21
7.492298
 31
0.0
  0
LINE
  5
181
100
AcDbEntity
  8
text
 62
1
100
AcDbLine
 10
1.731611
 20
7.260798
 30
0.0
 11
1.633416
 21
7.604548
 31
0.0
  0
LINE
  5
182
100
AcDbEntity
  8
text
 62
1
100
AcDbLine
 10
1.731611
 20
7.260798
 30
0.0
 11
1.829861
 21
7.604548
 31
0.0
  0
LINE
  5
183
100
AcDbEntity
  8
text
 62
1
100
AcDbLine
 10
1.731611
 20
7.260798
 30
0.0
 11
2.005208
 21
7.492298
 31
0.0
  0
LINE
  5
184
100
AcDbEntity
  8
text
 62
1
100
AcDbLine
 10
1.731611
 20
7.260798
 30
0.0
 11
2.089416
 21
7.302895
 31
0.0
  0
LINE
  5
185
100
AcDbEntity
  8
text
 62
1
100
AcDbLine
 10
1.731611
 20
7.260798
 30
0.0
 11
2.054319
 21
7.099451
 31
0.0
  0
LINE
  5
186
100
AcDbEntity
  8
text
 62
1
100
AcDbLine
 10
1.731611
 20
7.260798
 30
0.0
 11
1.914013
 21
6.945090
 31
0.0
  0
LINE
  5
187
100
AcDbEntity
  8
text
 62
1
100
AcDbLine
 10
1.731611
 20
7.260798
 30
0.0
 11
1.577319
 21
6.987201
 31
0.0
  0
LINE
  5
188
100
AcDbEntity
  8
text
 62
1
100
AcDbLine
 10
1.731611
 20
7.260798
 30
0.0
 11
1.535222
 21
7.008243
 31
0.0
  0
LINE
  5
189
100
AcDbEntity
  8
text
 62
1
100
AcDbLine
 10
1.731611
 20
7.260798
 30
0.0
 11
1.500111
 21
7.043298
 31
0.0
  0
LINE
  5
18a
100
AcDbEntity
  8
text
 62
1
100
AcDbLine
 10
1.731611
 20
7.260798
 30
0.0
 11
1.472069
 21
7.078395
 31
0.0
  0
LINE
  5
18b
100
AcDbEntity
  8
text
 62
1
100
AcDbLine
 10
1.731611
 20
7.260798
 30
0.0
 11
1.444013
 21
7.120493
 31
0.0
  0
LINE
  5
18c
100
AcDbEntity
  8
text
 62
1
100
AcDbLine
 10
1.731611
 20
7.260798
 30
0.0
 11
1.429958
 21
7.162604
 31
0.0
  0
LINE
  5
18d
100
AcDbEntity
  8
text
 62
1
100
AcDbLine
 10
1.731611
 20
7.260798
 30
0.0
 11
1.415972
 21
7.211701
 31
0.0
  0
LINE
  5
18e
100
AcDbEntity
  8
text
 62
1
100
AcDbLine
 10
1.731611
 20
7.260798
 30
0.0
 11
1.415972
 21
7.253743
 31
0.0
  0
LINE
  5
18f
100
AcDbEntity
  8
text
 62
1
100
AcDbLine
 10
1.731611
 20
7.260798
 30
0.0
 11
1.415972
 21
7.295840
 31
0.0
  0
LINE
  5
190
100
AcDbEntity
  8
text
 62
1
100
AcDbLine
 10
1.731611
 20
7.260798
 30
0.0
 11
1.422972
 21
7.337951
 31
0.0
  0
LINE
  5
191
100
AcDbEntity
  8
text
 62
1
100
AcDbLine
 10
1.731611
 20
7.260798
 30
0.0
 11
1.437013
 21
7.387048
 31
0.0
  0
LINE
  5
192
100
AcDbEntity
  8
text
 62
1
100
AcDbLine
 10
1.731611
 20
7.260798
 30
0.0
 11
1.458069
 21
7.429145
 31
0.0
  0
LINE
  5
193
100
AcDbEntity
  8
text
 62
1
100
AcDbLine
 10
1.731611
 20
7.260798
 30
0.0
 11
1.486111
 21
7.464243
 31
0.0
  0
LINE
  5
194
100
AcDbEntity
  8
text
 62
1
100
AcDbLine
 10
1.731611
 20
7.260798
 30
0.0
 11
1.521166
 21
7.499298
 31
0.0
  0
LINE
  5
195
100
AcDbEntity
  8
text
 62
1
100
AcDbLine
 10
1.731611
 20
7.260798
 30
0.0
 11
1.556263
 21
7.527340
 31
0.0
  0
LINE
  5
196
100
AcDbEntity
  8
text
 62
1
100
AcDbLine
 10
1.731611
 20
7.260798
 30
0.0
 11
1.598361
 21
7.548395
 31
0.0
  0
LINE
  5
197
100
AcDbEntity
  8
text
 62
1
100
AcDbLine
 10
1.731611
 20
7.260798
 30
0.0
 11
1.640416
 21
7.569451
 31
0.0
  0
LINE
  5
198
100
AcDbEntity
  8
text
 62
1
100
AcDbLine
 10
1.731611
 20
7.260798
 30
0.0
 11
1.689569
 21
7.576451
 31
0.0
  0
LINE
  5
199
100
AcDbEntity
  8
text
 62
1
100
AcDbLine
 10
1.731611
 20
7.260798
 30
0.0
 11
1.731611
 21
7.583493
 31
0.0
  0
LINE
  5
19a
100
AcDbEntity
  8
text
 62
1
100
AcDbLine
 10
1.731611
 20
7.260798
 30
0.0
 11
1.773708
 21
7.576451
 31
0.0
  0
LINE
  5
19b
100
AcDbEntity
  8
text
 62
1
100
AcDbLine
 10
1.731611
 20
7.260798
 30
0.0
 11
1.822819
 21
7.569451
 31
0.0
  0
LINE
  5
19c
100
AcDbEntity
  8
text
 62
1
100
AcDbLine
 10
1.731611
 20
7.260798
 30
0.0
 11
1.864916
 21
7.548395
 31
0.0
  0
LINE
  5
19d
100
AcDbEntity
  8
text
 62
1
100
AcDbLine
 10
1.731611
 20
7.260798
 30
0.0
 11
1.907013
 21
7.527340
 31
0.0
  0
LINE
  5
19e
100
AcDbEntity
  8
text
 62
1
100
AcDbLine
 10
1.731611
 20
7.260798
 30
0.0
 11
1.942069
 21
7.499298
 31
0.0
  0
LINE
  5
19f
100
AcDbEntity
  8
text
 62
1
100
AcDbLine
 10
1.731611
 20
7.260798
 30
0.0
 11
1.977166
 21
7.464243
 31
0.0
  0
LINE
  5
1a0
100
AcDbEntity
  8
text
 62
1
100
AcDbLine
 10
1.731611
 20
7.260798
 30
0.0
 11
2.005208
 21
7.429145
 31
0.0
  0
LINE
  5
1a1
100
AcDbEntity
  8
text
 62
1
100
AcDbLine
 10
1.731611
 20
7.260798
 30
0.0
 11
2.026263
 21
7.387048
 31
0.0
  0
LINE
  5
1a2
100
AcDbEntity
  8
text
 62
1
100
AcDbLine
 10
1.731611
 20
7.260798
 30
0.0
 11
2.040319
 21
7.337951
 31
0.0
  0
LINE
  5
1a3
100
AcDbEntity
  8
text
 62
1
100
AcDbLine
 10
1.731611
 20
7.260798
 30
0.0
 11
2.047319
 21
7.295840
 31
0.0
  0
LINE
  5
1a4
100
AcDbEntity
  8
text
 62
1
100
AcDbLine
 10
1.731611
 20
7.260798
 30
0.0
 11
2.047319
 21
7.253743
 31
0.0
  0
LINE
  5
1a5
100
AcDbEntity
  8
text
 62
1
100
AcDbLine
 10
1.731611
 20
7.260798
 30
0.0
 11
2.047319
 21
7.211701
 31
0.0
  0
LINE
  5
1a6
100
AcDbEntity
  8
text
 62
1
100
AcDbLine
 10
1.731611
 20
7.260798
 30
0.0
 11
2.033263
 21
7.162604
 31
0.0
  0
LINE
  5
1a7
100
AcDbEntity
  8
text
 62
1
100
AcDbLine
 10
1.731611
 20
7.260798
 30
0.0
 11
2.019263
 21
7.120493
 31
0.0
  0
LINE
  5
1a8
100
AcDbEntity
  8
text
 62
1
100
AcDbLine
 10
1.731611
 20
7.260798
 30
0.0
 11
1.991222
 21
7.078395
 31
0.0
  0
LINE
  5
1a9
100
AcDbEntity
  8
text
 62
1
100
AcDbLine
 10
1.731611
 20
7.260798
 30
0.0
 11
1.963111
 21
7.043298
 31
0.0
  0
LINE
  5
1aa
100
AcDbEntity
  8
text
 62
1
100
AcDbLine
 10
1.731611
 20
7.260798
 30
0.0
 11
1.928069
 21
7.008243
 31
0.0
  0
LINE
  5
1ab
100
AcDbEntity
  8
text
 62
1
100
AcDbLine
 10
1.731611
 20
7.260798
 30
0.0
 11
1.892958
 21
6.987201
 31
0.0
  0
SPLINE
  5
1ac
100
AcDbEntity
  8
text
 62
7
100
AcDbSpline
 70
0
 71
3
 72
19
 73
15
 74
13
 40
0.000000
 40
0.000000
 40
0.000000
 40
0.000000
 40
0.004461
 40
0.009016
 40
0.013919
 40
0.018821
 40
0.023376
 40
0.027838
 40
0.032333
 40
0.036893
 40
0.041795
 40
0.046697
 40
0.051257
 40
0.055753
 40
0.055753
 40
0.055753
 40
0.055753
 10
1.737092
 20
8.908080
 30
0.0
 10
1.736819
 20
8.906576
 30
0.0
 10
1.736266
 20
8.903537
 30
0.0
 10
1.732445
 20
8.900363
 30
0.0
 10
1.727658
 20
8.899216
 30
0.0
 10
1.722811
 20
8.900363
 30
0.0
 10
1.719158
 20
8.903538
 30
0.0
 10
1.717732
 20
8.908091
 30
0.0
 10
1.719151
 20
8.912650
 30
0.0
 10
1.722808
 20
8.915842
 30
0.0
 10
1.727658
 20
8.916983
 30
0.0
 10
1.732448
 20
8.915842
 30
0.0
 10
1.736274
 20
8.912650
 30
0.0
 10
1.736821
 20
8.909596
 30
0.0
 10
1.737092
 20
8.908080
 30
0.0
 11
1.737092
 21
8.908080
 31
0.0
 11
1.735801
 21
8.903809
 31
0.0
 11
1.732411
 21
8.900767
 31
0.0
 11
1.727648
 21
8.899608
 31
0.0
 11
1.722884
 21
8.900767
 31
0.0
 11
1.719494
 21
8.903809
 31
0.0
 11
1.718203
 21
8.908080
 31
0.0
 11
1.719494
 21
8.912386
 31
0.0
 11
1.722884
 21
8.915436
 31
0.0
 11
1.727648
 21
8.916594
 31
0.0
 11
1.732411
 21
8.915436
 31
0.0
 11
1.735801
 21
8.912386
 31
0.0
 11
1.737092
 21
8.908080
 31
0.0
  0
LINE
  5
1ad
100
AcDbEntity
  8
text
 62
1
100
AcDbLine
 10
1.689569
 20
7.260798
 30
0.0
 11
1.773708
 21
7.260798
 31
0.0
  0
LINE
  5
1ae
100
AcDbEntity
  8
text
 62
1
100
AcDbLine
 10
1.731611
 20
7.218701
 30
0.0
 11
1.731611
 21
7.302895
 31
0.0
  0
SPLINE
  5
1af
100
AcDbEntity
  8
text
 62
1
100
AcDbSpline
 70
0
 71
3
 72
19
 73
15
 74
13
 40
0.000000
 40
0.000000
 40
0.000000
 40
0.000000
 40
0.056881
 40
0.108680
 40
0.165561
 40
0.222480
 40
0.274289
 40
0.331171
 40
0.388090
 40
0.439909
 40
0.496829
 40
0.553710
 40
0.605520
 40
0.662438
 40
0.662438
 40
0.662438
 40
0.662438
 10
1.626416
 20
7.260798
 30
0.0
 10
1.628670
 20
7.280125
 30
0.0
 10
1.632976
 20
7.317052
 30
0.0
 10
1.675627
 20
7.358488
 30
0.0
 10
1.731548
 20
7.369919
 30
0.0
 10
1.787912
 20
7.358494
 30
0.0
 10
1.829350
 20
7.317057
 30
0.0
 10
1.840790
 20
7.260785
 30
0.0
 10
1.829355
 20
7.204509
 30
0.0
 10
1.787918
 20
7.163048
 30
0.0
 10
1.731548
 20
7.151621
 30
0.0
 10
1.675621
 20
7.163053
 30
0.0
 10
1.632970
 20
7.204515
 30
0.0
 10
1.628668
 20
7.241458
 30
0.0
 10
1.626416
 20
7.260798
 30
0.0
 11
1.626416
 21
7.260798
 31
0.0
 11
1.639667
 21
7.316114
 31
0.0
 11
1.676295
 21
7.352742
 31
0.0
 11
1.731611
 21
7.365993
 31
0.0
 11
1.786965
 21
7.352742
 31
0.0
 11
1.823607
 21
7.316114
 31
0.0
 11
1.836861
 21
7.260798
 31
0.0
 11
1.823607
 21
7.205443
 31
0.0
 11
1.786965
 21
7.168801
 31
0.0
 11
1.731611
 21
7.155548
 31
0.0
 11
1.676295
 21
7.168801
 31
0.0
 11
1.639667
 21
7.205443
 31
0.0
 11
1.626416
 21
7.260798
 31
0.0
  0
LINE
  5
1b0
100
AcDbEntity
  8
text
 62
7
100
AcDbLine
 10
1.739972
 20
7.258631
 30
0.0
 11
1.739972
 21
7.258631
 31
0.0
  0
SPLINE
  5
1b1
100
AcDbEntity
  8
text
 62
7
100
AcDbSpline
 70
0
 71
3
 72
19
 73
15
 74
13
 40
0.000000
 40
0.000000
 40
0.000000
 40
0.000000
 40
0.004461
 40
0.009016
 40
0.013919
 40
0.018821
 40
0.023376
 40
0.027838
 40
0.032333
 40
0.036893
 40
0.041795
 40
0.046697
 40
0.051257
 40
0.055753
 40
0.055753
 40
0.055753
 40
0.055753
 10
1.739972
 20
7.258631
 30
0.0
 10
1.739698
 20
7.257128
 30
0.0
 10
1.739146
 20
7.254089
 30
0.0
 10
1.735324
 20
7.250914
 30
0.0
 10
1.730538
 20
7.249768
 30
0.0
 10
1.725690
 20
7.250914
 30
0.0
 10
1.722037
 20
7.254089
 30
0.0
 10
1.720611
 20
7.258642
 30
0.0
 10
1.722030
 20
7.263202
 30
0.0
 10
1.725687
 20
7.266394
 30
0.0
 10
1.730538
 20
7.267535
 30
0.0
 10
1.735327
 20
7.266394
 30
0.0
 10
1.739154
 20
7.263202
 30
0.0
 10
1.739700
 20
7.260148
 30
0.0
 10
1.739972
 20
7.258631
 30
0.0
 11
1.739972
 21
7.258631
 31
0.0
 11
1.738680
 21
7.254361
 31
0.0
 11
1.735291
 21
7.251319
 31
0.0
 11
1.730527
 21
7.250159
 31
0.0
 11
1.725764
 21
7.251319
 31
0.0
 11
1.722374
 21
7.254361
 31
0.0
 11
1.721083
 21
7.258631
 31
0.0
 11
1.722374
 21
7.262938
 31
0.0
 11
1.725764
 21
7.265987
 31
0.0
 11
1.730527
 21
7.267145
 31
0.0
 11
1.735291
 21
7.265987
 31
0.0
 11
1.738680
 21
7.262938
 31
0.0
 11
1.739972
 21
7.258631
 31
0.0
  0
ENDSEC
  0
SECTION
  2
OBJECTS
  0
DICTIONARY
  5
C
330
0
100
AcDbDictionary
  3
ACAD_GROUP
350
D
  3
ACAD_MLINESTYLE
350
17
  0
DICTIONARY
  5
D
330
C
100
AcDbDictionary
  0
DICTIONARY
  5
1A
330
C
100
AcDbDictionary
  0
DICTIONARY
  5
17
330
C
100
AcDbDictionary
  3
STANDARD
350
18
  0
DICTIONARY
  5
19
330
C
100
AcDbDictionary
  0
ENDSEC
  0
EOF
